/* XPM */
static char *Logo[] = {
/* width height num_colors chars_per_pixel */
"    66    97      256            2",
/* colors */
".. c #000008",
".# c #008808",
".a c #880400",
".b c #004400",
".c c #000088",
".d c #808480",
".e c #08c010",
".f c #480000",
".g c #082090",
".h c #08e410",
".i c #886898",
".j c #c00410",
".k c #002400",
".l c #80cc98",
".m c #000048",
".n c #30e430",
".o c #0044e0",
".p c #0008c8",
".q c #c81810",
".r c #00f408",
".s c #280000",
".t c #e80408",
".u c #c0c8c8",
".v c #0024d8",
".w c #d8e0e0",
".x c #001400",
".y c #0834d8",
".z c #489448",
".A c #982018",
".B c #00a400",
".C c #38c830",
".D c #484440",
".E c #e8e8e8",
".F c #a00408",
".G c #0014d0",
".H c #001490",
".I c #784c80",
".J c #18f410",
".K c #000028",
".L c #0860f8",
".M c #20e410",
".N c #e01010",
".O c #e8f8f0",
".P c #a0a4a0",
".Q c #08d408",
".R c #c81010",
".S c #102070",
".T c #606460",
".U c #1834d8",
".V c #2840d0",
".W c #20a410",
".X c #2028f0",
".Y c #2018f0",
".Z c #202428",
".0 c #0014e8",
".1 c #200450",
".2 c #288420",
".3 c #001450",
".4 c #0008b0",
".5 c #100000",
".6 c #a81410",
".7 c #0824f0",
".8 c #402c48",
".9 c #0854f8",
"#. c #00fc00",
"## c #0834f8",
"#a c #881410",
"#b c #20d410",
"#c c #006400",
"#d c #f8fcf8",
"#e c #009408",
"#f c #000068",
"#g c #f80400",
"#h c #505450",
"#i c #28e428",
"#j c #c01428",
"#k c #680000",
"#l c #001828",
"#m c #38d430",
"#n c #0014b0",
"#o c #20f028",
"#p c #08ec28",
"#q c #a88cb0",
"#r c #0008e8",
"#s c #e81c20",
"#t c #c0a4c0",
"#u c #f00c08",
"#v c #20b420",
"#w c #1848d8",
"#x c #f0d0f0",
"#y c #003800",
"#z c #20d828",
"#A c #08ec08",
"#B c #30f820",
"#C c #f8ecf0",
"#D c #100028",
"#E c #d81010",
"#F c #a084b8",
"#G c #101410",
"#H c #083cf8",
"#I c #000800",
"#J c #0018d0",
"#K c #c02028",
"#L c #c8d4c8",
"#M c #b80808",
"#N c #082cf8",
"#O c #50dc58",
"#P c #900400",
"#Q c #000c88",
"#R c #d80808",
"#S c #001ce8",
"#T c #681810",
"#U c #20c410",
"#V c #00b800",
"#W c #203428",
"#X c #100ca8",
"#Y c #10fc10",
"#Z c #38dc38",
"#0 c #48e440",
"#1 c #108810",
"#2 c #909490",
"#3 c #281810",
"#4 c #c8fce0",
"#5 c #20ec28",
"#6 c #10f410",
"#7 c #100c08",
"#8 c #b81418",
"#9 c #0818b0",
"a. c #102418",
"a# c #40ac40",
"aa c #b0fcd8",
"ab c #706c88",
"ac c #4064f8",
"ad c #7884a0",
"ae c #204418",
"af c #b8c4c8",
"ag c #382450",
"ah c #782c30",
"ai c #2860f8",
"aj c #007400",
"ak c #90a0e8",
"al c #5884a0",
"am c #202cc0",
"an c #b02018",
"ao c #481818",
"ap c #209820",
"aq c #607468",
"ar c #585858",
"as c #b8bcb8",
"at c #205c38",
"au c #005400",
"av c #889cd0",
"aw c #286c38",
"ax c #b0b4b0",
"ay c #2854f8",
"az c #483c40",
"aA c #303840",
"aB c #48c450",
"aC c #807878",
"aD c #1030a0",
"aE c #381c40",
"aF c #603c68",
"aG c #584c60",
"aH c #30b440",
"aI c #b8dcd0",
"aJ c #706480",
"aK c #2870f8",
"aL c #787890",
"aM c #c0d4f0",
"aN c #18b428",
"aO c #203050",
"aP c #a8aca8",
"aQ c #989498",
"aR c #787878",
"aS c #300000",
"aT c #304838",
"aU c #389428",
"aV c #a0b4d0",
"aW c #b03020",
"aX c #a898a8",
"aY c #583868",
"aZ c #001070",
"a0 c #20c828",
"a1 c #281830",
"a2 c #104820",
"a3 c #103420",
"a4 c #107408",
"a5 c #c8bcd0",
"a6 c #c82428",
"a7 c #58bc58",
"a8 c #186cf8",
"a9 c #10c828",
"b. c #d0c8d8",
"b# c #18a410",
"ba c #686868",
"bb c #28a828",
"bc c #109810",
"bd c #780000",
"be c #30b428",
"bf c #701408",
"bg c #401838",
"bh c #a098b0",
"bi c #902c28",
"bj c #908890",
"bk c #1008c8",
"bl c #d81c10",
"bm c #181820",
"bn c #d0d4d0",
"bo c #10b810",
"bp c #383838",
"bq c #d8f8e0",
"br c #d8d4e0",
"bs c #38e440",
"bt c #1834f8",
"bu c #605870",
"bv c #981408",
"bw c #082030",
"bx c #200428",
"by c #30f838",
"bz c #500000",
"bA c #1854f8",
"bB c #d81020",
"bC c #c090c0",
"bD c #f81c18",
"bE c #484848",
"bF c #08dc10",
"bG c #282c28",
"bH c #405c48",
"bI c #2838a0",
"bJ c #887890",
"bK c #6878b0",
"bL c #0044f8",
"bM c #1044f8",
"bN c #187828",
"bO c #0824b8",
"bP c #1060f8",
"bQ c #2044f8",
"bR c #d01c28",
"bS c #102428",
"bT c #385848",
"bU c #300830",
"bV c #08c808",
"bW c #000c48",
"bX c #002cd8",
"bY c #d0e8d8",
"bZ c #083cd8",
"b0 c #001890",
"b1 c #18fc10",
"b2 c #18ec10",
"b3 c #a0a8a0",
"b4 c #081c48",
"b5 c #18dc10",
"b6 c #006c00",
"b7 c #000c70",
"b8 c #20fc28",
"b9 c #f0dcf0",
/* pixels */
"#d#d#d#d#d#d#d#d#d#d#d#d#d#d#d#d#d#d#d#d#d#d#d#d#d#d#d#d#d#d#d#d#d#d#d#C#d#C#d#d#d#d#d#d#d#d#d#d#d#d#d#d#d#d#d#d#d#d#d#d#d#d#d#d#d#d",
"#d#d#d#d#d#d#d#d#d#d#d#d#d#d#d#d#d#d#d#d#d#d#C#C#d#C#d#d#d#d#d#d#C#d#d#d#C#d#d#d#d#d#d#d#d#d#d#d#d#d#d#d#d#d#d#d#d#d#d#d#d#d#d#d#d#d",
"#d#d#d#d#d#d#d#d#d#d#d#d#d#d#d#d#d#d#d#d#d#d#d#d#d#d#C#d...P#d#d.ObWbW#l#I#I#d.O#d#d#d#d#C#d#d#d#d#d#d#d#d#d#d#d#d#d#d#d#d#d#d#d#d#d",
"#d#d#d#d#d#d#d#d#d#d#d#d#d#d#d#d#d#d#d#d#d#d#d#d#d#d#dbE..#7bhadaOb4.K#I#I..aL.O#d#d#d#d#d#d#d#d#d#d#d#d#d#d#d#d#d#d#d#d#d#d#d#d#d#d",
"#d#d#d#d#d#d#d#d#d#d#d#d#d#d#d#d#d#d#d#d#d#dbq#d.w.d..#I.......K...K.c.c#f.K...5aGax#C#d#d#d#d#d#d#d#d#d#d#d#d#d#d#d#d#d#d#d#d#d#d#d",
"#d#d#d#d#d#d#d#d#d#d#d#d#d#d#d#d#d#d#d#d#d.O#d.w#I..........#I.K.Kb7.p#r.4.m....#D.5bj#d#d#d#d#d#d#d#d#d#d#d#d#d#d#d#d#d#d#d#d#d#d#d",
"#d#d#d#d#d#d#d#d#d#d#d#d#d#d#d#d#d#d#d#d#d.P...............K.K#f.G#r#r.7ac.7.G#f.K.K..bE#d#C#d#d#d#d#d#d#d#d#d#d#d#d#d#d#d#d#d#d#d#d",
"#d#d#d#d#d#d#d#d#d#d#d#d#d#d#d#d#d#d.O.O.O#G....a........K.m#f#J.pbtay.v#N#N.p.c#f.K.K...d#d#C#d#d#d.E#d#d#d#d#d#d#d#d#d#d#d#d#d#d#d",
"#d#d#d#d#d#d#d#d#d#d#d#d#d#d#d#d#d.O#LbG..........#I.K.m.4.p#SbM#H#####H.vbL.G##.y#f#f.K..#I.d#C#d#d#d#d#d#d#d#d#d#d#d#d#d#d#d#d#d#d",
"#d#d#d#d#d#d#d#d#d#d#d#d#d.E#d.E.O...x#I..#7...3#f.c.p#S#r#r#r.0.p.p.G#N#Na8.p#H#r.v#n.m.K.....K#d#d#d#d#d#d#d#d#d#d#d#d#d#d#d#d#d#d",
"#d#d#d#d#d#d#d#d#d#d#d#d#d.O.O#2..#I.........K.m#X.4.X.X#r#r.G.4.4#f.4.4bt.Uai#r#Nbt#J#Q.m.K....aza5#d#d#d#d#d#d#d#d#d#d#d#d#d#d#d#d",
"#d#d#d#d#d#d#d#C#d#d#dbq#d.u...5.......K.m.c#X.c.m.m#f#f.m.K.K.........K.K.K#f.4.vbZ###S#r.4.m.K....#I#C#d#d#d#d#d#d#d#d#d#d#d#d#d#d",
"#d#d#d#d#d#d#d#d#d.O#d#d#2bp..........#f.c.p.c.m.....K.K.....................K.m.3#Q.4.7.X.X#f.m......aR#C#d#C#d.O#C#d#d#d#d#d#d#d#d",
"#d#d#d#d#d#d#d#d.O#db3.5......#I.m#f.4.p.p.c.K...............K.m.m...............K.K.K#Q#N####.G.c#f.K....bua5#C#d#d#d#d#d#d#d#d#d#d",
"#d#d#d#d#d#d#d#d.O#L#I....#I...m#Q.G#S.p.4.m.............K.m#Q#Qb7.K.K.K..............#f.7#####r#S.4#f.K.K#D..#d#d#C#d.O#d#d#d#d#d#d",
"#d#d#d#d#d#d#daq.......K.maZ.H#n.Xbt.Y#f.m...........m#f.p#r#r##.y#J.0.p#QbW...5.......K.H#n##a8.7##.G.4#f......#C#d#d.O#d#d#d#d#d#d",
"#d#d#d#d.O#d#L.........m.4.4#nbZbt#r.G.K#I.......K#f.4.4###N#HbAbL##bQ#H.vb7.K...5.....K.m#9#H##bL#H#N###J.mbW...Tbj#C#d#d#d#d#d#d#d",
"#C#d#d#daPaq...K.K.K.m.p#S#N#N##bt#f.m.........K.4#r.7##bL.9.LbLbL#HbL#HbM.p.4#f.K......#f#9.0bL.9###H#9ai.G.pb7......aC#C#C#d#d#d#d",
"#d.E#daP.....K#f#f#Q.G#N#HbL#N#H#N#f.m.........m#r.7#H.9.9.9#HbL#H#r.7#Sai#SbX#n#f#I#I...m#9.o.9bL.9.LbL.9bA#H.0#f.m#l..aL#d#d#d#d#d",
"#dbm#daP.....3#Q#Q.G#N#N#HbL#NbL.y#f.K.........m#S.7bL.9.obL#N#H#N.p.0.0.7aiay.p.4.K...K.cbObLbZbZ.9#H.9bLbLbL###J.4.K.K.K.P#C#d#d#d",
"#d.......5.5.m.V.v#H##bL#H#N###H#w.m.K.......K.m#J#N#HbLbL##bt#r.c.m.m#Q.4acbM#r#r.p.p.G#r#N##bLbX.9.0bLbL.v#H#H.7.0.4bI.K..aG#d#C#d",
".O#I.s.5.saS..#f#nbt#H##bL#HbL.L.9#n#f.K.......m#S#N#HbL#H#H#N.p.m...K.K.c#J#S#H##.0ai.y###HbP###HbL#H#HbL.o.9aK.G.4b7b0.K..ba#d#d#d",
"#d......bda6bz.K#f.c#9#N#H#HbLbL#H#S.4.K.......K#S.7#H.9.9#N#N#f.K.........m.c.v#N#SbL#H.ybLa8.7bL##bLbLbLbP.9#H#X.m#I#y#y..#h#d#d#d",
"#C#I#I#Ibd.R#P.5.K#f#f.v###H.o#H###N.G.m.K.....K.p.0#N.9bL.9.0#f.K...........m#Q.p#N##bL.L.o#HbLbA#HbLbL##bL.vbZ.m.K#yaBa7..ar#d#C#d",
"#d.x..#I.a#E.t.Fbz.....m.vbt#HbM#HbL#H.4.m.......m#f#w#JbAbL.G.p.m...........K.m#f#rbM#HbLbLbL#HbLbL#N.UbQ.c#f#laub#b8b2.b#I.T#d#d#d",
"bq#l.....a#R#g#R.FaS...K#Q#n#r.0##bL##.4#Q.........Kb0#nai#H.7#r.4.K...........m.c#r.X.ybP##.9.7#N#H.G#n#Q.m.K#cby#6.r#6.k..#h#d#d.O",
".O.x.....a.t#g.t.N#M.a.5...Kb7.4.7#NbA#N#N#f.......K.K.K#f.p.p.7bk.m.....K.....c.p###N#HbL#H.0#N.4#9#f.K#I#yb6#A#.#.#.#p.k..ar#d#d#d",
"#d.x....#P.t#g.t.t#g.t.a.5.....Kb7#N#S#H#H.4bW#I...........K.K.m.K..........b7#J#N#H#HbL#Nbt#n.c.K..#Iau.Bb1.r#.#6#.#.#p.k..bu#d#d#d",
".O.x....#P.t#g#g.t#g#g#RaS.......K#X.p#H#H#J.K.K..#I.............K.....K.K.m#n#N#H##bLbX.v.U#f.K#I.x.x#U#6#.#..r#6#Y#.#A.k..bJ#C#d#d",
".O.k.....a#R#g#g#g#g#g#u#8.a.s.5.....m#9#n.y.G.G#Q.m.....K.......K...Kb7.p.0#N.y.ybO#w#Q.K.K.x.xb6#m.J#.#.#..r#..r#.#..M.xaE#x#d#d#d",
"bq.k....#P.t#g#g#g#g#g.t.N.jaS.5.5...K#f.c#N##.X.p.c#f#f#f.K.....K.m#Q#9.0#S.7.0.4.g#Q.m..#I#y#c#V.J#.#..r#.#..r#.#.#.#p.xaY#C#C#d#d",
".O.k#I..#P#R#g#u#g#g#g#g#g#g#jbd.saoaS.5...m.X.X#H##bA#H#rbk.c.c.4bXbL#H#N#S.4bW.K.K..#Iau.#.Mb2#Y#.#..r#.#.#.#..r#.#.#A.x.i#C#C#d#d",
".Oa3#I#I.a.t#g#u#g#g#g#u#g#g#R#j.fahbz.s.s.K#9.0#H#HbLbL.0#r.Y.p.G##bLbL.v.p.m........#y#5#Y#.#.#.#.#.#Y#.#.#..r#Y#.#.#o..#C#C#d#C#d",
"bqa3....bd.N#g#g#g#g#g.t#g#g#g#gblbz#ka6#8aS.K.m#n.v#N#NbL#H#H#HbMbL.0.4#f.m#D..#I#ybc#i#6.r#.#.#6#.#.#A#Y.n#c#6#A.rb5#c..ab#C#C#d#d",
"bqa...#Ibd.t#g#u#g#g#R.R#g#g#g#g.N#P#P#M#j.aaS...m.c#JbA#H#H##.7b0#Q#Q.c.K.KbW#I#y#U#5.Jb2b1.r#..r.r#.#5aNb6#y.h.r#.#b#y.Kb.#d#d#d#d",
".ObS#I#I.a.t#g#g#g.jbd.s#k.6#u#g#g#g.t.a#P.NbB.j.f.5.m.H#J#N.7.p#Q.K.K#D....#y.Bby#..r#..r#..r#.#.b8.B.k.x.x#y.J#.#.bo#y..#C#d#d#d#d",
"#dbS#I..#P.t.t#g#g.6.f...5.5#kbdbl.t.t#E.Fbz.R.N#E#P.5.K#f.4#9aD.K.5....#c.Bb8.r#.#.#.#.#.#.#.#.#A#Z.x..#I.b#Z#.#.#.bc.x.5#d#d#d#d#d",
"#d.x....#P.t#g#g.tbvaS.......5.sbvbB.t.t#E#kbd#8.N.jbz.s.K#faZal#l..#I.k.e#o.r#.#.#.#.#.#.#.#.#.#5au..#I#Iau#i#.#.#.bc.x.5#d#d#d#d#d",
".O......#P.t#g#g.tbz.5...........5.f.a.t#g.NaSaS#P#R.N.6.5#D...k.x#ca9#o#6#..J.nbF#6#.#..r#.#.b8au.x.K...x#5#.#.#.#..#.x..#d#d#d#d#d",
"#d.......a.N#g#g#gaS.5...........s.5aS#M.t#u.abzbzbd#R.Nbf...xb#.B#5#6.r#6#5#e.2au.h#.#.#.#..hbs.k#I....aub1.r#.#.#.aj.x..#C#C#d#d#d",
"#d.......a.N#g#g#g.s............#I...5.5.fbda6.qaS.s#k#8#8.5.x#U.J#.#.#.#Ub6.x.x.b.r#.#.#..r#1.k....#I#c.B#..r#Y.r#Y#y...K#C#C#d#d#d",
"#d.......a.N#g#g#g#k.5.5.........x........aS.F.6#T.saS.abl...x#0.h#.#.#6.W.k#I.x.W#..r#..r#6.x.......x#zb8#.#..r#6b2.x...1#C#C#d#d#d",
".O.x.5..bd#j#g#g#g.t.t#EaS.5.................5.5bdanbd#P#8.....b#5#.#..J#y#I#I.xa4#A#.#.#i.b....#I#I.k.r#Y#.#.#.#Abe#I..bC#d#d#d#d#d",
"#d.......abB#g#g#g#g#g#sbd.f.5..................bd.R.j#R.R.5#I.k.Q#.#.#6.x.x...xaubo.Q#A.W.x....#I.x#e#.#6#.#.#.#A.W#I..#x#d#d#d#d#d",
"#d.......fbd.t#g#g#g#g#g.N#j.s.5...5........#I#I#k.R.t#g#8.5..#yaj.r#.b2.x#I...xae.x.##m#I.....K.x.##Y#..r#.#.#.#A.W#I#I#d#d#d#d#d#d",
"bq#I.5...s.f#g#u#g#g#g#g.t#j.s........#I....#I..#k#R#g#gan..#I.x#e.r.rb2.x#I..#IbT#I.x#y#I.......##5#.#..r#.#.#..h.#.x..#d#d#d#d#d#d",
"bY...5.5#T.a#g#g#g#g#g#g#u#j.5..............#I..bd#E#g#gan.5#I.x.##A#..J.x.....xbT.x#I.x#I.....xbs.h#..r#.#.#.#.#oap#I#I#C#d#d#d#d#d",
"bq#I.....F#R#g#g#g#g#g#g.N#8.5........aSaS.s....#k#K.t#ubvaS.5.x#m#Y#.#6.x#I#I.xae......#I#I.xau#.#.#.#.#.#.#.#..naj#I..#d#d#d#d#d#d",
"#4.k....#P#R#g#g#g#g#g#g#R.6.5.5......bd.a.a.s..aSbd#R#g#a.5...xbo#Y#.#6.x#I#I#Ia...........#ybs#.#.#.#.#.#.#.#.#Z.b#I..#d#d#d#d#d#d",
"aaat.5.s#kbd#g#g#g#g#g#g.t.6.5.....5.s.R#u.N#M.F.F#M#g#gbf.....x#c#6#.#Y.x..#I.....5........#yaHby#..r#.#.#.#..Jaj.x....#d#d#d#d#d#d",
"aaa2.5.s#kbd#g#g#g#g#g#g#R.6.5.....5.s#R#g#g#g.t.t.t#g#gbf....#Iau#p#.#A.x.......5.......5...k#y#z#p#A#.#.#.#.b2.b.x...K#d#d#d#d#d#d",
"bq#y..#I#P#R#u.t#g#g#g#g#Rbv..#I....aS.t#g#g#g#g.t#g#g#g#a.5...xau#o#.b2#I...K......#I.........x.k.k#m.r.r#.#.b2.k#I#D#D#d#d#d#d#d#d",
".Oa3#I.x#M.t#g#g.t#g#g#g.j#a.........f.t#g#g#g#g#g#g#g#g.a.5...k#e#.#..J.x........#I...5....#I#I.x.x.b#o.h#.#.#Y#y#I.Kbx#d#d#d#d#d#d",
"#4.k...5bB#g#g#g.t#g#g#g#R#a.......5#k#u#g#g#g#g#g#g#u#g.a.....b#i.r#.#A#I.......x#y.b#1.x.x#I......#I.bb6a9.h.h.k...5#q#d#d#d#d#d#d",
"bq.x.5...j#g#g#g#g#g#g#g.t.F.......sbd#u#g#g#g#g#g#g#g#g.a.5#Iaj#z#.#..r.x.....x.b#5#o#Y#V#e.x......#I..#7.k.##m.k.x#G.E#C#d#d#d#d#d",
"bY#I....#M#u#g#g#g#g#g#g.t#8.5.....s.a.t#g#g#g#g#g#g#g#g.a..#Ibb#o.r#.#A.x#I...xbb#..r#.#A#5#y.x..#I#I.5...k#y.n.k.xbS#d#d#d#d#d#d#d",
"bq.k..#Ibdbl.t#g#g#g#u.t#u#8.5.....sbd.t#g#g#g#g#g#g#g#g.a..#I#ObF#.#.#A.x.....k#m#.#.#.#.#.#p#5b6.k.....x#V.J.M.x.x.D.O#G#C#d#d#d#d",
"#4aw...x#kbl.t#g#g#g.t.t.t.F.5.....5.a.N#g#g#g#g#g#g.t#g.a.5#Ia0#o#.#.#6.x#I...b#z#.#.#.#.#.#..r#z.#.x.x.kb1.r.h.x#I..bT..#d.O#d#C#d",
"#4.l.x.5#P.j#g#g#g#g#g#g.N#M.5.....5bd.t#g#g#g#g#g#g#g#g.a.5#I#ib2#.#..M#I..#I#y#z#Y.r#Y#.#.#.#.#.b8.e.B#6#.#..M.x...x..aQ#d#d#d#d#d",
"#4bq#G..#k#K#g#g#g#g#g#g#u.j.s.....5bd#g#g#g#g#g#g#g#g#g.a..#I#Zb2#.#A.n.x#I...b#Z.r#Y#6#.#.#.#.#..r#Y.r#.#.#.#Z.x#I.x..#d#d#C#d#C#d",
"#d.E#7...saS.F#R#g#g.t#g#g.N.6#k.f.sbd.t#g#g#g#g#g#g#g#g.a..#I.n.M#.b8be.......ba0#.#.#6#.#.#.#.#.#.#.#.#.#A#o.k......#I.K#C#d#d#d#d",
"#C#da5aO....bz.F#R#g#g#g#g#g#E#MbdaSbd.t#g#g#g#g#g#g#g#gbd.5#Ibs.M#.b2aj....#Iaua9#.#.#..r#.#.#.#..r#Y#..r#iap#I..#7.x..#F#d#d#d#d#d",
"#d#C.Obq.....5aSaS.6#j#g#g#g#g#g.N.R#R#g#g#g#g#g#g#g#g#g#T.5#I#m#A#..h#y....#I#c#i#.#.#.#.#.#.#.#.#.#..nbc.k.x......aR.u#C#d#d#d#d#d",
"#d#d#d.Oadba.....5.s#k.N#g#g.t.t#g.t.t#g#g#g#g#g#g#g#g#g.f.5..#Zb2#.b5bc#I..#y#A#.#.#.#.#.#.#.#..h.r#v.k.x.x#I..aL.w#d#d#d#d#d#d#d#d",
"#C#d.O.O#d#C.Z#I...5aS.j.t.t#g.t#g#g#g#g#g#g#g#g#g#g#g#gaS..#I#Z#p#.#ZaB.k.kbc#Y#.#.#.#.#.#.#.#..hbs#y.k.x.......E#d.O#d#d#d#d#d#d#d",
"#d#C#d#d#d.O#da..x.....s#8bB.t#g#g#g#g#g#g#g#g#g#g#g.t.N.s..#I#i#p.r.##y#z#o#..r#.#.#.#.#.#.b2.n#1.k.x.....8#C#C#d#d#d#d#d#d#d#d#d#d",
"#d#d.O#d#d#d.O.OaI#I#I.5bz.F#g#g#g#g#g#g#g#g#g#g#g#g.t#R.5...x#5#A#.bFbV#Y#.#.#.#.#.#.#.#6#A.B#c.x#I....#D#x#C#C#dbq#d#d#d#d#d#d#d#d",
"#d#d#d#d#d#d#d#d.Obqbq......#kbR#g#g#g#g#g#g.t#g#g#g.t#8.5...x#zb8#.#.#.#.#..r#.#.#.#..J#map.x.x....azb.#C#d#d#d#d.O#d#d#d#d#d#d#d#d",
"#d#d#d#d#d#d#d#d#d.ObqaR..#IaS.f.N#g#g#g#g#g#g#g#g#g.t.6.5..#I#z#A#.#.#.#.#.#.#.#.#..r#z#1.x#I#I#I..b9#d#d#d#d#d#d#d#d#d#d#d#d#d#d#d",
".O#d#d#d#d#d#d#d#d#d#d#CaT...k#IaSbB.t#g#g#g#g#g#g#g#Ebv.5..#I#z#o.r.r.r#.#.#.#..r.M#v.x.x......#C#C#d#d#d#d.O.O#d#d#d#d#d#d#d#d#d#d",
"#d#d#d#d#d#d#d#d#d#d#d#d.wbE..#I..#k#M#g#g#g#g#g#g#g.t.A.5..#I#z#o.r#.#.#.#.#6#.#Yb6#y.x.....P#L#d#d#C#d#d#d#d#d#d#d#d#d#d#d#d#d#d#d",
"#d#d#d#d#d.O#d#d#d#d.O#d#d#dbhbw...5.f#M.t#g#g#g#g#g.t.A.5..#I#5.r#..r#..r.r#B#c#y...x..araQ#d#d#d#d.O#d#d#d#d#d#d#d#d#d#d#d#d#d#d#d",
"#d#d#d#d#d#d#d#d#d#d#d#d#d#d#d#d.d...5.5.f.N#g#g#g#g#R.6.5#I.x#Y#.#.#..r#6.e.k#I.......w#d#d#d#d#d#d#d#d#d#d#d#d#d#d#d#d#d#d#d#d#d#d",
"#d#d#d#d#d#d#d#d#d#d#d#d#d#d#d#d#d..#I...5#K#u#g#g#g#R.F.5.x.b.r.r#.#.#6a0b6.x..#G.ZbE#d#C#d#d#d#d#d#d#d#d#d#d#d#d#d#d#d#d#d#d#d#d#d",
"#d#d#d#d#d#d#d#d#d#d#d#d#d#d#d#d#C#d#d.....sa6.jbD#RbB.a#I.xb6#.#..M#v.b.x.x..aG#d#d#d#d#d#d#d#d#d#d#d#d#d#d#d#d#d#d#d#d#d#d#d#d#d#d",
"#d#d#d#d#d#d#d#d#d#d#d#d#d#d#d#d#d#d#C.E.T.5.fbv#M#s#j.a...x.##.#Y#Z.k#I....bU.E#C.O#d#d#d#d#d#d#d#d#d#d#d#d#d#d#d#d#d#d#d#d#d#d#d#d",
"#d#d#d#d#d#d#d#d#d#d#d#d#d#d#d#d#d#d#d#d#db9..#7.s.fbd.f...xaU#1au.k#I...i#t#d#d#C#C.O#d#C#d#d#d#d#d#d#d#d#d#d#d#d#d#d#d#d#d#d#d#d#d",
"#d#d#d#d#d#d#d#d#d#d#d#d#d#d#d#d#d#d#d#d#d#dbG...5.5aS.s...xa2.x.x#I....#C#C#d#d#d#d#d#d#d#d#d#d#d#d#d#d#d#d#d#d#d#d#d#d#d#d#d#d#d#d",
"#d#d#d#d#d#d#d#d#d#d#d#d#d#d#d#d#d#d#d#d#d#d.O.w.x..........#Iag#D.Ka5#d#d#d#d#d#d#d#d#d#d#d#d#d#d#d#d#d#d#d#d#d#d#d#d#d#d#d#d#d#d#d",
"#d#d#d#d#d#d#d#d#d#d#d#d#d#d#d#d#d#d#d#d#d#d#d.ObG...x....#Ibw.K#DaG#C#d#d#d#d#d#d#d#d#d#d#d#d#d#d#d#d#d#d#d#d#d#d#d#d#d#d#d#d#d#d#d",
"#d#d#d#d#d#d#d#d#d#d#d#d#d#d#d#d#d#d#d#d#d#d.O#d#C#C......#lbwabas#d#d#d#d#d#d#d#d#d#d#d#d#d#d#d#d#d#d#d#d#d#d#d#d#d#d#d#d#d#d#d#d#d",
"#d#d#d#d#d#d#d#d#d#d#d#d#d#d#d#d#d#d#d#d#d#d.O#d#C#CbqaT....b.#d#C#d#C#d#d#d#d#d#d#d#d#d#d#d#d#d#d#d#d#d#d#d#d#d#d#d#d#d#d#d#d#d#d#d",
"#d#d#d#d#d#d#d#d#d#d#d#d#d#d#d#d#d#d#d#d#d.O#db9#C#dbqbY..aG#d#C#C#C#d.O#d#d#d#d#d#d#d#d#d#d#d#d#d#d#d#d#d#d#d#d#d#d#d#d#d#d#d#d#d#d",
"#C#d.O#d#C#d#d#d#d#d#C#d#d#d#C#d#d#d#d#d#d#d#C#d#d#d#d#d#C#d#d#d#d#d#d#d#d#d#d#d#d#d#d#C#d#d#d#d#C#d#d#d#d#d#d#d#d#d#d#d#d#d#d#d#d#d",
"#d.O#d#d#d#d#d#d.E#d#d#d.P#C#d#d#d#d#d#d#d#d#d#d#d#d#d#d#d#d#d#d#d#d#d#d#d#d#d#d#d#d#C.O#d#d#d#d#d#d#d#d#d#d#d#d#d#d#d#d#d#d#dbj.u#d",
"#d#d#d#daA.d......#d#dbm..aC#d#d#d#d#d#d#d#d#d#d#d#d#d#d#d#d#d#d#d#d#d#d#d#d#d#d#d.u#G........#I#h#d#d#d#d#d#d#d#d#d#d#d#d#h....#2#d",
"#d#d.u#G#d#C#dba#d#d#Cba#IaR#d.O#d#d#d#d#d#d#C#L#C#d#d#d#d#d#d#d#d#d#d#d#d#d#d#d#daR.T#G.ZaR......as.O#d#d#d#d#d#d#d#d#d#d.Eas..aR#d",
"#d#d#IaR#d#d#d#d#d#d#daR..aC#d#d#d#d#d#d#d.u...D#d#d#d#d#d#d#d#d#d#d#d#d#d#d#d#d#d#d#d..ba#d#d.Z#IaR#d#d#d#d#d#d#d#d#d#d#d#d#d#Iba#d",
"#C#L...d#d#d#d#d#d#d#d.d..aR#d#d#C.d.u.O#dbp....#h.d#d#d#d#d#d#d.d.u#d#d#d#d#C#d#d#d#d..aC#d#daR..as#d#d#d.das#d#d#d#d#d.d#d#d..aR#d",
"#d.d..aR#d#d#dbm....#daC...d#d#daR.....u#d#d#d#dbG#I..#I#C.O.DaRaA#7.E#d#d#d#d#d#d#d#d..aR#d.D#W#d#d#dbpaR..#I.u..#I#h....#d#d...D#d",
"#d#2....#d#d#d#d.D..as.d..aR#d#d#dar..#I.u#d.D..#d#d....aC#I..#das.O#d#d....#I#7ax#d#d..aR#d#d#d#d#d..#d#dbG#d#d.d..aq#d#d#C#d....#d",
"#dax....#d#d#d#CaR#I#daR..aR#d.wbE........#d..#I#d#dba#I#d..#7as.u#d#d#d......aR#d#d#d...d#d#d#C#d#C..#das#d#d#d.d...d.E#d#d#d..#I#d",
"#d#d..#I...D#d#dbp#d#daR...d#2..#d#C#d....#d....#d#dbG#h#C....#h#d#d#d#d.E#d#d#d#d#d#d...d#d#d#d#C#d#I..az#d#d#d.d...d#d#d#C#d.x..#d",
"#d#d.P#7#I...DbEba#d#daR..aR.......daRbp..aR.....D.daz#d#daR......#7#d#d#d#d#d#d#d#d#d...P#d#C#d#d#d.d..#I..#3#daC..ba#d#d#d#C....#d",
"#d#d#d#das.Tax#d#C#d#das#d#C.O.u.d#C#d.Ebn.O#CaxaC.E#d.O#d#d.O.Taq.O#d#d#d#d#d#d#d#d#d#C#d#d#d#d#d#d#dasba#d#d#d#C#C.E#d#d#d#d#C#d#d",
"#d#d#d#d#d#d#d#d#d.O#d#d#d#d#d#C#C#d#d#d#C#d#d.O#d#d#d#d#d#d#d#d#d#d#d#d#d#d#d#d#d#d#d#d.O#d#d#d#d#d#d#C#d.E#d#d#d#d#d#d#d#d#d#d#d#d",
"#d#d#d#d#d#d#d#d#d#d#d#d#d#d#d#d#d#d#d#d#d#d#C#d#d#d#d#d.E#d#d#d.O#d#d#d#d#d#d#d#d#d#d#d.O#d#d#d#d#d#d#d#d#d.E#d#C#d#d#d#d#d#C#d.E#d"
};
